<?xml version="1.0" encoding="UTF-8"?>
<!DOCTYPE svg PUBLIC "-//W3C//DTD SVG 1.1//EN" "http://www.w3.org/Graphics/SVG/1.1/DTD/svg11.dtd">
<!-- Creator: CorelDRAW 2021 (64 Bit) -->
<svg xmlns="http://www.w3.org/2000/svg" xml:space="preserve" width="47.4133mm" height="8.065mm" version="1.1" style="shape-rendering:geometricPrecision; text-rendering:geometricPrecision; image-rendering:optimizeQuality; fill-rule:evenodd; clip-rule:evenodd"
viewBox="0 0 1495.65 254.41"
 xmlns:xlink="http://www.w3.org/1999/xlink"
 xmlns:xodm="http://www.corel.com/coreldraw/odm/2003">
 <defs>
  <style type="text/css">
   <![CDATA[
    .fil0 {fill:#797979;fill-rule:nonzero}
   ]]>
  </style>
 </defs>
 <g id="Camada_x0020_1">
  <metadata id="CorelCorpID_0Corel-Layer"/>
  <g id="_1397472848112">
   <path class="fil0" d="M127.21 0c-70.23,0 -127.2,56.93 -127.2,127.2 0,70.22 56.93,127.2 127.2,127.2 70.27,0 127.2,-56.98 127.2,-127.2 0,-70.22 -56.93,-127.2 -127.2,-127.2zm0 215.25c-48.63,0 -88.05,-39.41 -88.05,-88.04 0,-48.63 39.42,-88.04 88.05,-88.04 48.63,0 88.04,39.41 88.04,88.04 0,48.63 -39.42,88.04 -88.04,88.04z"/>
   <rect class="fil0" x="156.59" y="107.65" width="39.16" height="39.16"/>
  </g>
  <g id="_1397472851760">
   <rect class="fil0" x="422.46" y="92.32" width="38.19" height="123.49"/>
   <rect class="fil0" x="711.44" y="92.32" width="38.19" height="123.49"/>
   <path class="fil0" d="M856.01 88.81c-18.49,0 -30.91,6.82 -39.11,23.88l0 -20.37 -38.19 0 0 123.49 38.19 0 0 -69.36c0,-18.03 7.23,-28.11 20.37,-28.11 12.17,0 19.45,7.03 19.45,21.79l0 75.67 38.19 0 0 -76.84c0,-36.56 -10.54,-50.16 -38.91,-50.16z"/>
   <path class="fil0" d="M1007.45 111.78c-7.28,-15.23 -20.42,-22.97 -39.41,-22.97 -34.68,0 -50.36,20.37 -50.36,64.67 0,45.22 15.68,65.84 50.36,65.84 18.79,0 31.88,-8.2 39.41,-24.34l0 20.83 38.19 0 0 -122.06 -38.19 0 0 18.03zm1.12 44.05c0,20.62 -9.57,33.76 -27.14,33.76 -18.54,0 -25.56,-9.83 -25.56,-36.1 0,-26.48 6.83,-34.88 25.56,-34.88 17.11,0 26.94,11.91 27.14,31.62l0 5.6z"/>
   <path class="fil0" d="M1152.02 88.81c-18.49,0 -30.91,6.82 -39.11,23.88l0 -20.37 -38.19 0 0 123.49 38.19 0 0 -69.36c0,-18.03 7.23,-28.11 20.37,-28.11 12.17,0 19.45,7.03 19.45,21.79l0 75.67 38.19 0 0 -76.84c0,-36.56 -10.54,-50.16 -38.9,-50.16z"/>
   <path class="fil0" d="M1281.42 188.87c-21.54,0 -29.28,-9.12 -29.28,-35.13 0,-25.31 7.74,-34.48 29.28,-34.48 16.85,0 25.77,7.03 26.73,21.34l36.77 0c-2.09,-33.76 -24.6,-51.79 -64.21,-51.79 -46.13,0 -67.01,19.91 -67.01,64.67 0,45.22 20.88,65.84 67.01,65.84 40.08,0 62.59,-18.95 64.67,-54.34l-36.77 0c-1.17,15.94 -10.34,23.88 -27.19,23.88z"/>
   <path class="fil0" d="M1495.65 153.73c0,-46.18 -20.42,-64.93 -66.1,-64.93 -45.73,0 -66.1,20.17 -66.1,64.47 0,45.22 20.62,66.05 66.3,66.05 40.59,0 61.87,-14.05 63.76,-42.16l-36.1 0c-1.63,10.08 -9.37,14.31 -26.94,14.31 -18.99,0 -26.94,-7.54 -28.57,-28.36l93.75 0 0 -9.37 0 0zm-93.54 -13.14c2.14,-17.57 9.62,-23.88 27.65,-23.88 18.79,0 26.74,6.77 27.45,23.88l-55.1 0z"/>
   <circle class="fil0" cx="441.65" cy="57.75" r="21.54"/>
   <path class="fil0" d="M536.37 61.16l-38.44 0 0 31.16 -19.2 0 0 30.25 19.2 0 0 40.99c0,35.65 13.34,51.43 45.93,52.2l0 0.05 2.6 0 17.31 0 0 -30.71 -10.69 0c-5.65,0 -10.34,-1.63 -12.98,-4.89 -2.55,-3.51 -3.72,-8.91 -3.72,-16.65l0 -40.99 27.4 0 0 -30.25 -27.4 0 0 -31.16z"/>
   <polygon class="fil0" points="293.57,215.81 332.68,215.81 332.68,161.48 380.8,161.48 380.8,127.46 332.68,127.46 332.68,86.21 399.24,86.21 399.24,52.5 293.57,52.5 "/>
   <polygon class="fil0" points="582.5,215.81 621.61,215.81 621.61,161.48 669.74,161.48 669.74,127.46 621.61,127.46 621.61,86.21 688.17,86.21 688.17,52.5 582.5,52.5 "/>
   <circle class="fil0" cx="730.54" cy="57.75" r="21.54"/>
  </g>
  <g id="_1397472837504">
   <path class="fil0" d="M127.21 0c-70.23,0 -127.2,56.93 -127.2,127.2 0,70.22 56.93,127.2 127.2,127.2 70.27,0 127.2,-56.98 127.2,-127.2 0,-70.22 -56.93,-127.2 -127.2,-127.2zm0 215.25c-48.63,0 -88.05,-39.41 -88.05,-88.04 0,-48.63 39.42,-88.04 88.05,-88.04 48.63,0 88.04,39.41 88.04,88.04 0,48.63 -39.42,88.04 -88.04,88.04z"/>
   <rect class="fil0" x="156.59" y="107.65" width="39.16" height="39.16"/>
  </g>
  <g id="_1397472841200">
   <rect class="fil0" x="422.46" y="92.32" width="38.19" height="123.49"/>
   <rect class="fil0" x="711.44" y="92.32" width="38.19" height="123.49"/>
   <path class="fil0" d="M856.01 88.81c-18.49,0 -30.91,6.82 -39.11,23.88l0 -20.37 -38.19 0 0 123.49 38.19 0 0 -69.36c0,-18.03 7.23,-28.11 20.37,-28.11 12.17,0 19.45,7.03 19.45,21.79l0 75.67 38.19 0 0 -76.84c0,-36.56 -10.54,-50.16 -38.91,-50.16z"/>
   <path class="fil0" d="M1007.45 111.78c-7.28,-15.23 -20.42,-22.97 -39.41,-22.97 -34.68,0 -50.36,20.37 -50.36,64.67 0,45.22 15.68,65.84 50.36,65.84 18.79,0 31.88,-8.2 39.41,-24.34l0 20.83 38.19 0 0 -122.06 -38.19 0 0 18.03zm1.12 44.05c0,20.62 -9.57,33.76 -27.14,33.76 -18.54,0 -25.56,-9.83 -25.56,-36.1 0,-26.48 6.83,-34.88 25.56,-34.88 17.11,0 26.94,11.91 27.14,31.62l0 5.6z"/>
   <path class="fil0" d="M1152.02 88.81c-18.49,0 -30.91,6.82 -39.11,23.88l0 -20.37 -38.19 0 0 123.49 38.19 0 0 -69.36c0,-18.03 7.23,-28.11 20.37,-28.11 12.17,0 19.45,7.03 19.45,21.79l0 75.67 38.19 0 0 -76.84c0,-36.56 -10.54,-50.16 -38.9,-50.16z"/>
   <path class="fil0" d="M1281.42 188.87c-21.54,0 -29.28,-9.12 -29.28,-35.13 0,-25.31 7.74,-34.48 29.28,-34.48 16.85,0 25.77,7.03 26.73,21.34l36.77 0c-2.09,-33.76 -24.6,-51.79 -64.21,-51.79 -46.13,0 -67.01,19.91 -67.01,64.67 0,45.22 20.88,65.84 67.01,65.84 40.08,0 62.59,-18.95 64.67,-54.34l-36.77 0c-1.17,15.94 -10.34,23.88 -27.19,23.88z"/>
   <path class="fil0" d="M1495.65 153.73c0,-46.18 -20.42,-64.93 -66.1,-64.93 -45.73,0 -66.1,20.17 -66.1,64.47 0,45.22 20.62,66.05 66.3,66.05 40.59,0 61.87,-14.05 63.76,-42.16l-36.1 0c-1.63,10.08 -9.37,14.31 -26.94,14.31 -18.99,0 -26.94,-7.54 -28.57,-28.36l93.75 0 0 -9.37 0 0zm-93.54 -13.14c2.14,-17.57 9.62,-23.88 27.65,-23.88 18.79,0 26.74,6.77 27.45,23.88l-55.1 0z"/>
   <circle class="fil0" cx="441.65" cy="57.75" r="21.54"/>
   <path class="fil0" d="M536.37 61.16l-38.44 0 0 31.16 -19.2 0 0 30.25 19.2 0 0 40.99c0,35.65 13.34,51.43 45.93,52.2l0 0.05 2.6 0 17.31 0 0 -30.71 -10.69 0c-5.65,0 -10.34,-1.63 -12.98,-4.89 -2.55,-3.51 -3.72,-8.91 -3.72,-16.65l0 -40.99 27.4 0 0 -30.25 -27.4 0 0 -31.16z"/>
   <polygon class="fil0" points="293.57,215.81 332.68,215.81 332.68,161.48 380.8,161.48 380.8,127.46 332.68,127.46 332.68,86.21 399.24,86.21 399.24,52.5 293.57,52.5 "/>
   <polygon class="fil0" points="582.5,215.81 621.61,215.81 621.61,161.48 669.74,161.48 669.74,127.46 621.61,127.46 621.61,86.21 688.17,86.21 688.17,52.5 582.5,52.5 "/>
   <circle class="fil0" cx="730.54" cy="57.75" r="21.54"/>
  </g>
 </g>
</svg>
